<?xml version="1.0" encoding="UTF-8"?>
<svg id="_Слой_1" data-name="Слой 1" xmlns="http://www.w3.org/2000/svg" viewBox="0 0 369.44 172.85">
  <defs>
    <style>
      .cls-1 {
        fill: #3d5a6c;
      }

      .cls-2 {
        fill: #069192;
      }
    </style>
  </defs>
  <polygon class="cls-1" points="62.22 122.74 57.24 131.37 55.93 128.44 52.69 121.23 65.64 111.62 70.89 107.72 65.22 117.54 62.22 122.73 62.22 122.74"/>
  <polygon class="cls-1" points="111.02 172.85 75.86 172.85 61.47 140.79 61.33 140.47 74.56 117.54 81.1 106.2 111.02 172.85"/>
  <polygon class="cls-2" points="116.05 45.67 112.88 51.15 111.48 53.57 106.54 51.15 104.21 50.01 96.74 62.94 70.89 107.72 65.22 117.54 62.22 122.73 62.22 122.74 57.24 131.37 50.68 142.73 47.68 147.93 35.12 169.68 33.29 172.85 9.64 172.85 8.01 171.91 31.38 131.43 32.12 130.15 38.46 119.17 78.66 49.53 84.07 40.16 85.47 37.74 86.59 35.79 87.34 34.5 88.18 33.05 89.68 30.45 116.05 45.67"/>
  <polygon class="cls-2" points="103.71 45.67 101.87 48.86 93.74 62.94 62.22 117.54 59.22 122.73 59.22 122.74 47.68 142.73 44.68 147.93 32.12 169.68 30.29 172.85 1.67 172.85 1.67 171.91 25.04 131.43 32.12 119.17 72.32 49.53 79.13 37.74 74.45 35.45 77.34 30.45 81.84 33.05 103.71 45.67"/>
  <polygon class="cls-2" points="106.71 45.67 104.87 48.86 104.21 50.01 96.74 62.94 70.89 107.72 65.22 117.54 62.22 122.73 62.22 122.74 57.24 131.37 50.68 142.73 47.68 147.93 35.12 169.68 33.29 172.85 4.67 172.85 4.67 171.91 28.04 131.43 32.12 124.36 35.12 119.17 75.32 49.53 81.47 38.88 82.13 37.74 77.45 35.45 79.59 31.75 80.34 30.45 84.84 33.05 87.34 34.5 106.71 45.67"/>
  <rect class="cls-1" x="1.67" y="0" width="112.04" height="30.45"/>
  <polygon class="cls-1" points="30.45 0 30.45 108.11 17.37 130.77 0 160.86 0 0 30.45 0"/>
  <polygon class="cls-2" points="32.12 119.17 32.12 172.85 1.67 172.85 1.67 171.91 25.04 131.43 32.12 119.17"/>
  <polygon class="cls-2" points="120.21 57.84 111.48 53.57 106.54 51.15 104.21 50.01 101.87 48.86 84.07 40.16 81.47 38.88 79.13 37.74 74.45 35.45 64.5 30.58 64.71 30.45 113.58 .66 113.71 1.78 120.21 57.84"/>
  <rect class="cls-2" x="132.75" y="90.91" width="47.6" height="11.52"/>
  <g>
    <path class="cls-1" d="M245.02,68.46h-19.51v58.35h-11.27v-58.35h-19.47v-9.57h50.25v9.57Z"/>
    <path class="cls-1" d="M278.93,127.95c-9.79,0-17.63-3.17-23.52-9.52-5.89-6.35-8.83-14.6-8.83-24.77,0-10.92,3-19.64,9-26.14,6-6.5,14.14-9.76,24.44-9.76,9.54,0,17.22,3.16,23.04,9.47,5.83,6.32,8.74,14.57,8.74,24.77,0,11.08-2.98,19.85-8.95,26.29-5.97,6.44-13.94,9.66-23.92,9.66ZM279.45,67.65c-6.22,0-11.28,2.32-15.18,6.96s-5.85,10.75-5.85,18.33,1.89,13.62,5.68,18.24,8.75,6.92,14.87,6.92c6.5,0,11.64-2.19,15.39-6.58,3.76-4.39,5.64-10.53,5.64-18.42s-1.82-14.38-5.47-18.8c-3.65-4.42-8.68-6.63-15.08-6.63Z"/>
    <path class="cls-1" d="M335.48,102.18v24.63h-11.23V58.89h20.6c7.8,0,13.85,1.82,18.14,5.45,4.29,3.63,6.44,8.75,6.44,15.35s-2.24,12-6.73,16.2c-4.48,4.2-10.55,6.3-18.19,6.3h-9.05ZM335.48,68.17v24.82h7.29c4.83,0,8.51-1.12,11.04-3.36,2.53-2.24,3.79-5.4,3.79-9.47,0-7.99-4.64-11.98-13.92-11.98h-8.19Z"/>
  </g>
</svg>