<?xml version="1.0" encoding="UTF-8"?>
<svg id="_Слой_1" data-name="Слой 1" xmlns="http://www.w3.org/2000/svg" viewBox="0 0 236.74 340.43">
  <defs>
    <style>
      .cls-1 {
        fill: #fff;
      }
    </style>
  </defs>
  <polygon class="cls-1" points="122.53 241.74 112.73 258.73 110.15 252.96 103.76 238.76 129.27 219.84 139.61 212.15 128.44 231.5 122.53 241.72 122.53 241.74"/>
  <polygon class="cls-1" points="218.64 340.43 149.4 340.43 121.06 277.29 120.78 276.65 146.84 231.5 159.72 209.16 218.64 340.43"/>
  <polygon class="cls-1" points="228.55 89.95 222.31 100.74 219.55 105.51 209.82 100.74 205.23 98.5 190.52 123.96 139.61 212.15 128.44 231.5 122.53 241.72 122.53 241.74 112.73 258.73 99.81 281.11 93.9 291.35 69.16 334.18 65.56 340.43 18.98 340.43 15.77 338.57 61.8 258.85 63.25 256.33 75.74 234.71 154.91 97.55 165.57 79.1 168.32 74.33 170.53 70.49 172.01 67.95 173.66 65.1 176.61 59.97 228.55 89.95"/>
  <polygon class="cls-1" points="204.25 89.95 200.62 96.23 184.61 123.96 122.53 231.5 116.63 241.72 116.63 241.74 93.9 281.11 87.99 291.35 63.25 334.18 59.65 340.43 3.28 340.43 3.28 338.57 49.31 258.85 63.25 234.71 142.43 97.55 155.84 74.33 146.62 69.82 152.31 59.97 161.17 65.1 204.25 89.95"/>
  <polygon class="cls-1" points="210.15 89.95 206.53 96.23 205.23 98.5 190.52 123.96 139.61 212.15 128.44 231.5 122.53 241.72 122.53 241.74 112.73 258.73 99.81 281.11 93.9 291.35 69.16 334.18 65.56 340.43 9.19 340.43 9.19 338.57 55.22 258.85 63.25 244.93 69.16 234.71 148.33 97.55 160.45 76.58 161.75 74.33 152.53 69.82 156.74 62.53 158.22 59.97 167.08 65.1 172.01 67.95 210.15 89.95"/>
  <rect class="cls-1" x="3.28" y="0" width="220.65" height="59.97"/>
  <polygon class="cls-1" points="59.97 0 59.97 212.92 34.21 257.55 0 316.81 0 0 59.97 0"/>
  <polygon class="cls-1" points="63.25 234.71 63.25 340.43 3.28 340.43 3.28 338.57 49.31 258.85 63.25 234.71"/>
  <polygon class="cls-1" points="236.74 113.92 219.55 105.51 209.82 100.74 205.23 98.5 200.62 96.23 165.57 79.1 160.45 76.58 155.84 74.33 146.62 69.82 127.02 60.23 127.44 59.97 223.69 1.3 223.94 3.51 236.74 113.92"/>
</svg>